<svg xmlns="http://www.w3.org/2000/svg" viewBox="0 0 100 100" fill="none">
  <!-- Cloud shape -->
  <path d="M75 35c0-11.046-8.954-20-20-20-8.837 0-16.348 5.736-19.019 13.709C33.729 29.434 32.379 30 31 30c-5.523 0-10 4.477-10 10 0 1.381.566 2.731 1.291 4.981C14.736 47.652 10 55.163 10 64c0 11.046 8.954 20 20 20h40c11.046 0 20-8.954 20-20s-8.954-20-20-20c-1.379 0-2.729.566-4.981 1.291C62.348 40.736 59.837 35 55 35z" fill="currentColor" opacity="0.2"/>
  
  <!-- Certificate/Badge -->
  <circle cx="50" cy="50" r="18" fill="none" stroke="currentColor" stroke-width="2"/>
  <circle cx="50" cy="50" r="12" fill="none" stroke="currentColor" stroke-width="1.5"/>
  
  <!-- Checkmark -->
  <path d="M44 50l4 4 8-8" stroke="currentColor" stroke-width="2" stroke-linecap="round" stroke-linejoin="round" fill="none"/>
  
  <!-- Ribbon -->
  <path d="M42 68v8l8-4 8 4v-8" fill="currentColor" opacity="0.7"/>
</svg>