<svg width="800" height="500" xmlns="http://www.w3.org/2000/svg">
    <defs>
        <linearGradient id="grad-data" x1="0%" y1="0%" x2="100%" y2="100%">
            <stop offset="0%" style="stop-color:#e67e22;stop-opacity:1" />
            <stop offset="100%" style="stop-color:#d35400;stop-opacity:1" />
        </linearGradient>
    </defs>
    <rect width="100%" height="100%" fill="url(#grad-data)"/>
    <rect x="50" y="50" width="700" height="400" fill="none" stroke="rgba(255,255,255,0.3)" stroke-width="2" rx="8"/>
    <text x="50%" y="40%" text-anchor="middle" fill="white" font-family="Arial, sans-serif" font-size="32" font-weight="bold">
        Data Visualization Dashboard
    </text>
    <text x="50%" y="48%" text-anchor="middle" fill="rgba(255,255,255,0.8)" font-family="Arial, sans-serif" font-size="18">
        Interactive Business Intelligence
    </text>
    <rect x="100" y="160" width="250" height="150" fill="rgba(255,255,255,0.2)" rx="8"/>
    <rect x="370" y="160" width="150" height="150" fill="rgba(255,255,255,0.15)" rx="8"/>
    <rect x="540" y="160" width="150" height="150" fill="rgba(255,255,255,0.1)" rx="8"/>
    <!-- Chart bars -->
    <rect x="120" y="260" width="20" height="40" fill="rgba(255,255,255,0.5)"/>
    <rect x="150" y="240" width="20" height="60" fill="rgba(255,255,255,0.5)"/>
    <rect x="180" y="220" width="20" height="80" fill="rgba(255,255,255,0.5)"/>
    <rect x="210" y="200" width="20" height="100" fill="rgba(255,255,255,0.5)"/>
    <rect x="240" y="180" width="20" height="120" fill="rgba(255,255,255,0.5)"/>
    <rect x="270" y="230" width="20" height="70" fill="rgba(255,255,255,0.5)"/>
    <rect x="300" y="250" width="20" height="50" fill="rgba(255,255,255,0.5)"/>
    <!-- Pie chart -->
    <circle cx="445" cy="235" r="50" fill="rgba(255,255,255,0.3)"/>
    <path d="M 445 185 A 50 50 0 0 1 495 235 L 445 235 Z" fill="rgba(255,255,255,0.5)"/>
    <!-- Line chart -->
    <polyline points="560,280 580,260 600,240 620,220 640,200 660,180" 
              fill="none" stroke="rgba(255,255,255,0.6)" stroke-width="3"/>
</svg>