<svg width="800" height="500" xmlns="http://www.w3.org/2000/svg">
    <defs>
        <linearGradient id="grad-portfolio" x1="0%" y1="0%" x2="100%" y2="100%">
            <stop offset="0%" style="stop-color:#1abc9c;stop-opacity:1" />
            <stop offset="100%" style="stop-color:#16a085;stop-opacity:1" />
        </linearGradient>
    </defs>
    <rect width="100%" height="100%" fill="url(#grad-portfolio)"/>
    <rect x="50" y="50" width="700" height="400" fill="none" stroke="rgba(255,255,255,0.3)" stroke-width="2" rx="8"/>
    <text x="50%" y="45%" text-anchor="middle" fill="white" font-family="Arial, sans-serif" font-size="36" font-weight="bold">
        Portfolio Website
    </text>
    <text x="50%" y="55%" text-anchor="middle" fill="rgba(255,255,255,0.8)" font-family="Arial, sans-serif" font-size="18">
        Responsive Personal Portfolio
    </text>
    <rect x="100" y="140" width="600" height="40" fill="rgba(255,255,255,0.3)" rx="4"/>
    <rect x="120" y="150" width="100" height="20" fill="rgba(255,255,255,0.5)" rx="2"/>
    <rect x="250" y="150" width="80" height="20" fill="rgba(255,255,255,0.4)" rx="2"/>
    <rect x="350" y="150" width="90" height="20" fill="rgba(255,255,255,0.4)" rx="2"/>
    <rect x="100" y="200" width="180" height="180" fill="rgba(255,255,255,0.2)" rx="8"/>
    <rect x="300" y="200" width="180" height="180" fill="rgba(255,255,255,0.15)" rx="8"/>
    <rect x="500" y="200" width="180" height="180" fill="rgba(255,255,255,0.1)" rx="8"/>
    <circle cx="190" cy="240" r="20" fill="rgba(255,255,255,0.4)"/>
    <circle cx="390" cy="240" r="20" fill="rgba(255,255,255,0.3)"/>
    <circle cx="590" cy="240" r="20" fill="rgba(255,255,255,0.2)"/>
</svg>